<svg width="180" height="166" viewBox="0 0 193 166" fill="none" xmlns="http://www.w3.org/2000/svg">
    <g id="Group 299">
        <g id="Rectangle 1289" filter="url(#filter0_b_713_747)">
            <rect x="0.215698" y="0.664978" width="192.175" height="165.335" rx="15.0305" fill="white"
                fill-opacity="0.18" />
        </g>
        <g id="Group 263">
            <g id="Group 255">
                <ellipse id="Ellipse 6" cx="21.1133" cy="18.6005" rx="4.71999" ry="4.75784" fill="#FC5B00" />
                <ellipse id="Ellipse 7" cx="39.9933" cy="18.6005" rx="4.71999" ry="4.75784" fill="#ECAA00" />
                <ellipse id="Ellipse 8" cx="58.8732" cy="18.6005" rx="4.71999" ry="4.75784" fill="#009D10" />
            </g>
        </g>
        <g id="Group 208">
            <rect id="Rectangle 1275" width="9.30457" height="23.2668" rx="4.65228"
                transform="matrix(1 0 0 -1 24.9086 145.528)" fill="#0DBBFC" />
            <rect id="Rectangle 1276" width="9.30457" height="13.4841" rx="4.65228"
                transform="matrix(1 0 0 -1 43.5178 135.745)" fill="#0DBBFC" />
            <rect id="Rectangle 1277" x="62.1268" y="59.8639" width="9.30457" height="62.3972" rx="4.65228"
                fill="#0DBBFC" />
            <rect id="Rectangle 1278" x="80.736" y="79.1648" width="9.30457" height="43.0964" rx="4.65229"
                fill="#0DBBFC" />
            <rect id="Rectangle 1279" x="99.3452" y="39.2411" width="9.30457" height="83.02" rx="4.65229"
                fill="#95ABBC" />
            <rect id="Rectangle 1280" x="117.954" y="63.5654" width="9.30457" height="58.6957" rx="4.65229"
                fill="#0DBBFC" />
            <rect id="Rectangle 1281" x="136.563" y="52.1965" width="9.30456" height="70.0647" rx="4.65228"
                fill="#0DBBFC" />
            <rect id="Rectangle 1282" x="155.173" y="90.2693" width="9.30456" height="31.9918" rx="4.65228"
                fill="#0DBBFC" />
        </g>
    </g>
    <defs>
        <filter id="filter0_b_713_747" x="-68.495" y="-68.0457" width="329.596" height="302.756"
            filterUnits="userSpaceOnUse" color-interpolation-filters="sRGB">
            <feFlood flood-opacity="0" result="BackgroundImageFix" />
            <feGaussianBlur in="BackgroundImageFix" stdDeviation="34.3553" />
            <feComposite in2="SourceAlpha" operator="in" result="effect1_backgroundBlur_713_747" />
            <feBlend mode="normal" in="SourceGraphic" in2="effect1_backgroundBlur_713_747" result="shape" />
        </filter>
    </defs>
</svg>